<svg width="1440" height="697" viewBox="0 0 1440 697" fill="none" xmlns="http://www.w3.org/2000/svg">
<path d="M56.967 56.1539L0 36.4507V697H1440V20.3299C1422.42 15.9514 1384.93 6.35855 1375.65 3.01498C1365.6 -0.603319 1362.67 -0.194143 1358.64 0.368377C1358.02 0.455591 1357.37 0.546577 1356.66 0.626715C1353.27 1.01003 1352.93 1.63942 1352.28 2.83085C1351.92 3.49527 1351.46 4.33447 1350.33 5.40325C1350.19 5.53671 1350.06 5.66062 1349.94 5.77563C1348.81 6.83994 1348.49 7.14153 1348.08 7.18774C1347.92 7.20601 1347.75 7.18435 1347.5 7.15413C1346.93 7.08431 1345.99 6.96876 1344 7.19445C1340.89 7.54622 1340.35 6.86171 1339.56 5.87358C1339.01 5.18459 1338.35 4.34786 1336.62 3.61205C1332.4 1.82085 1331.34 1.82085 1327.12 1.82085C1324.38 1.82085 1324.31 2.07215 1324.02 3.06388C1323.86 3.60075 1323.64 4.35505 1322.9 5.40325C1321.44 7.46808 1319.98 8.10475 1318.17 8.89375C1317.37 9.2454 1316.49 9.62763 1315.52 10.1798C1313.77 11.1659 1312.35 11.0662 1311.07 10.9767C1310.03 10.9036 1309.08 10.8372 1308.13 11.3739C1306.44 12.3292 1307.43 14.5583 1308.13 15.5534H1302.86C1302.86 15.9514 1301.59 16.5087 1296.53 15.5534C1293.53 14.9871 1290.52 13.7493 1287.75 12.6044C1284.67 11.3351 1281.87 10.1798 1279.65 10.1798C1277.06 10.1798 1274.87 11.304 1272.1 12.7246C1270.35 13.6189 1268.38 14.6307 1265.93 15.5534C1261.99 17.0404 1255.19 17.1386 1244.76 17.2892C1238.44 17.3805 1230.78 17.491 1221.63 17.9416C1204.42 18.7883 1200.48 18.4344 1197.38 18.1567C1196.11 18.0428 1194.98 17.9416 1193.14 17.9416C1189.23 17.9416 1188.54 17.4855 1187.59 16.8552C1187 16.4656 1186.32 16.0095 1184.7 15.5534C1182.53 14.9376 1181.19 15.2744 1179.98 15.5814C1178.83 15.8697 1177.8 16.1317 1176.26 15.5534C1173.1 14.3592 1170.99 14.3592 1164.66 14.3592C1161.03 14.3592 1160.87 13.9662 1160.6 13.2929C1160.39 12.7926 1160.13 12.1375 1158.33 11.3739C1155.61 10.2215 1154.65 10.7991 1153.18 11.6757C1152.36 12.1616 1151.39 12.7393 1149.89 13.1651C1147.22 13.9203 1146.24 13.9591 1144.28 14.0366C1143.14 14.0817 1141.67 14.1398 1139.34 14.3592C1135.6 14.7123 1135.54 15.2743 1135.47 16.0451C1135.42 16.5776 1135.36 17.2098 1134.07 17.9416L1127.74 21.524C1127.07 21.9014 1126.51 22.249 1126.01 22.5597C1123.33 24.2151 1122.35 24.8234 1116.13 23.3152C1110.22 21.8823 1109.45 23.9123 1109.8 25.1064C1114.02 28.9277 1111.56 29.883 1109.8 29.883C1110.86 28.6888 1111.7 26.5394 1106.64 27.4947C1103.47 28.0918 1102.68 28.5396 1102.29 28.7635C1101.89 28.9874 1101.89 28.9874 1100.31 28.6888C1098.48 28.3441 1098.41 28.7955 1098.27 29.6982C1098.17 30.359 1098.03 31.2618 1097.14 32.2712C1096.22 33.3148 1095.7 33.9023 1094.88 34.283C1093.82 34.7735 1092.27 34.9204 1088.7 35.2566C1084.08 35.6928 1082.83 38.9974 1082.09 40.979C1081.81 41.7097 1081.6 42.2605 1081.32 42.4214C1080.87 42.6773 1080.22 42.3848 1079.3 41.9671C1078.07 41.41 1076.35 40.6302 1073.93 40.6302C1071.12 40.6302 1071.12 41.6916 1071.12 42.753C1071.12 43.2838 1071.12 43.8145 1070.77 44.2126C1070.18 44.8788 1068.28 44.9875 1065.25 45.1607C1062.84 45.298 1059.73 45.4759 1056 46.0038C1050.96 46.7165 1048.93 47.642 1046.99 48.5262C1045.68 49.1234 1044.41 49.7018 1042.29 50.1832C1040.69 50.5448 1038.99 51.0158 1037.15 51.53C1032.89 52.7141 1027.81 54.1272 1021.19 54.9598C1017.26 55.4536 1014.78 56.1517 1012.47 56.8007C1009.2 57.7209 1006.27 58.5422 1000.09 58.5422C990.424 58.5422 988.727 60.0454 986.889 61.6747C986.72 61.8239 986.551 61.9743 986.374 62.1246C984.264 63.9158 980.044 65.707 975.824 65.707C973.563 65.707 972.513 66.3928 971.539 67.0295C970.695 67.5808 969.908 68.0952 968.44 68.0952C966.871 68.0952 965.561 69.2688 963.997 70.6707C962.405 72.097 960.55 73.7596 957.89 74.663C953.772 76.0615 952.226 76.732 949.737 77.8114C949.039 78.1144 948.266 78.4497 947.341 78.8424C945.448 79.6458 944.616 79.7285 943.989 79.7909C943.218 79.8676 942.756 79.9136 941.011 81.2307C939.529 82.3493 939.435 82.682 939.321 83.0877C939.191 83.5482 939.035 84.1027 936.791 86.0072C934.02 88.3601 933.524 88.395 932.314 88.48C931.682 88.5245 930.855 88.5827 929.407 88.9926C927.108 89.643 927.001 89.2305 926.868 88.7201C926.757 88.2934 926.628 87.7984 925.187 87.7984C923.321 87.7984 922.189 89.0432 920.925 90.432C920.045 91.3994 919.102 92.4367 917.802 93.172C914.637 94.9632 911.473 93.172 906.198 88.9926C904.215 87.4216 903.276 86.1037 902.539 85.0705C901.317 83.3551 900.654 82.4248 896.703 82.4248C893.753 82.4248 892.865 82.6842 892.331 82.8403C891.72 83.0191 891.572 83.0624 889.319 82.4248C888.683 82.2451 888.12 82.0789 887.589 81.9221L887.584 81.9206C884.588 81.0368 882.61 80.4533 874.549 79.4395C873.11 79.2584 871.889 79.1186 870.845 78.999C865.006 78.3303 864.735 78.2993 862.945 75.26C862.388 74.315 861.979 73.4531 861.619 72.6962L861.618 72.6946C860.615 70.5831 860 69.2894 857.67 69.2894C854.505 69.2894 853.451 69.2894 850.286 67.4982C849.077 66.814 848.638 66.304 848.262 65.8685C847.655 65.1637 847.216 64.6538 843.956 63.9158C840.226 63.0714 839.661 63.4211 838.531 64.1206C838.063 64.4104 837.498 64.7601 836.571 65.1099C834.462 65.906 833.289 65.6406 832.117 65.3753C831.531 65.2426 830.945 65.1099 830.242 65.1099C829.216 65.1099 828.689 64.2638 827.934 63.0513C827.135 61.7689 826.081 60.0767 823.912 58.5422L823.91 58.5408C819.693 55.5572 819.692 55.5565 816.527 53.7656C813.996 52.3327 811.956 52.7705 811.253 53.1686H805.978C805.045 53.1686 804.113 53.2723 803.072 53.388C800.581 53.665 797.472 54.0108 792.264 53.1686C788.663 52.5864 787.069 52.9976 785.647 53.3644C784.153 53.75 782.848 54.0865 779.604 53.1686C775.261 51.9395 773.898 51.8349 772.107 51.6974C771.288 51.6345 770.379 51.5648 769.055 51.3774C766.945 51.0788 766.681 51.3774 766.286 51.8252C765.89 52.273 765.363 52.87 762.725 53.1686C760.211 53.4532 758.655 52.7879 757.601 52.3372C756.445 51.8426 755.893 51.6065 755.341 53.1686C754.702 54.9753 747.882 57.6567 741.192 60.2865C736.829 62.002 732.521 63.6956 730.022 65.1099C726.07 67.3467 725.408 67.4886 723.671 67.8609C722.626 68.0849 721.191 68.3923 718.418 69.2894C713.105 71.0074 712.16 70.5626 710.87 69.9554C710.367 69.7185 709.811 69.4569 708.923 69.2894C705.758 68.6923 703.648 69.2894 699.429 72.2747C696.912 74.0548 695.897 73.712 694.592 73.2717C693.708 72.9735 692.693 72.6307 690.989 72.8718C688.602 73.2095 688.24 74.1206 687.995 74.7401C687.806 75.2156 687.685 75.5193 686.769 75.26C684.659 74.663 681.495 76.4542 678.33 78.8424C675.661 80.8559 674.493 81.1719 671.663 81.937C671.137 82.0794 670.552 82.2374 669.89 82.4248C667.418 83.1243 667.118 83.619 666.87 84.0287C666.694 84.3185 666.544 84.5658 665.67 84.8131C663.982 85.2907 663.56 85.0121 663.56 84.8131C662.154 84.415 659.13 83.8578 658.286 84.8131C658.069 85.0582 657.853 85.3788 657.627 85.7128C656.753 87.0063 655.743 88.5023 654.066 86.6043C652.894 85.2775 651.722 85.7935 650.549 86.3094C649.612 86.7222 648.674 87.135 647.736 86.6043C646.566 85.942 645.72 87.1164 645.019 88.09C644.456 88.8719 643.986 89.5244 643.516 88.9926C642.462 87.7984 640.352 87.2014 637.187 88.9926C635.516 89.9379 635.022 90.218 634.461 90.4473C634.225 90.5438 633.978 90.6314 633.626 90.7558C633.231 90.8957 632.703 91.0823 631.912 91.3808C630.715 91.8324 629.971 92.284 629.28 92.7033C628.144 93.3927 627.151 93.9949 624.527 94.3662C622.591 94.6401 621.766 95.2913 620.827 96.0311C619.721 96.9036 618.458 97.8994 615.033 98.5456C611.805 99.1545 611.046 98.8319 609.959 98.3695C608.913 97.925 607.564 97.3515 603.429 97.3515C597.893 97.3515 597.35 96.5809 596.738 95.7137C596.418 95.2587 596.078 94.7771 594.989 94.3662C592.457 93.4109 590.418 94.7642 589.714 95.5603C588.659 94.9632 586.338 93.8885 585.494 94.3662C584.44 94.9632 582.33 96.1573 574.945 96.1573C570.133 96.1573 567.112 95.1431 565.008 94.4365C563.884 94.0589 563.021 93.7691 562.286 93.7691C560.176 93.7691 559.121 93.7691 552.791 92.575C551.974 92.575 551.156 92.2165 550.155 91.7773C548.571 91.0829 546.528 90.1867 543.297 90.1867C540.71 90.1867 540.407 90.6175 540.147 90.9861C539.877 91.3692 539.655 91.6851 536.967 91.3808C532.747 90.9032 532.396 92.774 532.747 93.7691C532.396 92.774 531.27 90.6643 529.582 90.1867C528.689 89.9339 527.607 89.8952 526.175 89.8439C524.226 89.7741 521.628 89.6811 517.978 88.9926C516.396 88.694 515.407 88.4701 514.747 88.3209C513.98 88.1472 513.659 88.0746 513.369 88.1029C513.161 88.1233 512.968 88.1959 512.637 88.3208C512.242 88.4701 511.648 88.694 510.593 88.9926C507.78 89.7886 505.905 89.5233 504.029 89.2579C503.092 89.1252 502.154 88.9926 501.099 88.9926C499.952 88.9926 499.081 89.228 498.288 89.4428C496.892 89.8205 495.732 90.1344 493.714 88.9926C491.182 87.5596 486.33 88.3955 484.22 88.9926C483.868 89.1916 482.532 89.8284 480 90.7838C477.837 91.5998 476.167 91.3005 474.653 91.0292C473.952 90.9035 473.283 90.7838 472.615 90.7838C471.843 90.7838 472.06 90.5438 472.335 90.2395C472.812 89.7125 473.463 88.9926 469.451 88.9926C468.147 88.2545 466.843 88.4288 465.041 88.6695C463.927 88.8183 462.623 88.9926 461.011 88.9926C456.791 88.9926 443.077 87.2014 435.692 84.8131C433.94 84.2463 432.781 83.8476 431.949 83.5612C430.859 83.1861 430.329 83.0037 429.756 82.8883C429.214 82.779 428.634 82.7299 427.504 82.6343C426.9 82.5832 426.139 82.5188 425.143 82.4248C418.813 81.8278 415.648 80.6336 412.484 78.8424C412.077 78.6124 411.688 78.3823 411.31 78.1586C408.742 76.6404 406.667 75.4134 402.989 76.4542C400.381 77.1922 399.385 77.018 398.008 76.7772C397.157 76.6284 396.161 76.4542 394.549 76.4542C391.736 76.4542 389.392 75.3927 387.829 74.6851C387.048 74.3313 386.462 74.0659 386.11 74.0659C385.724 74.0659 385.196 74.2259 384.527 74.4287C383.369 74.7801 381.787 75.26 379.78 75.26C377.842 75.26 377.091 74.8122 375.588 73.9166C374.637 73.3497 373.385 72.6034 371.341 71.6776C366.066 69.2895 361.846 66.9011 358.681 65.1099C355.516 63.3187 354.462 63.9158 352.352 65.1099C350.242 66.304 341.802 66.9011 329.143 66.9011C323.407 66.9011 321.353 66.7785 320.037 66.7C318.448 66.6052 317.934 66.5746 313.319 66.9011C309.579 67.1656 307.911 67.4302 306.57 67.6428C304.885 67.91 303.717 68.0952 299.604 68.0952C295.602 68.0952 294.079 66.8676 292.684 65.7431C291.504 64.7926 290.416 63.9158 288 63.9158C284.044 63.9158 283.648 62.9082 283.253 61.9007C283.121 61.5648 282.989 61.229 282.725 60.9304C281.67 59.7363 281.67 59.7363 270.066 56.1539C265.669 54.7967 261.727 53.6965 258.125 52.6912C252.218 51.0429 247.224 49.6492 242.637 47.795C240.27 46.838 238.12 45.9424 236.117 45.1082C231.871 43.3399 228.287 41.8472 224.703 40.6302C221.804 39.6457 220.498 40.2845 218.509 41.2579C216.879 42.0555 214.79 43.0777 210.989 43.6155C205.064 44.4538 204.859 44.4093 203.437 44.1018C202.834 43.9713 202.011 43.7934 200.44 43.6155C195.943 43.1065 196.046 43.8992 196.175 44.884C196.197 45.0543 196.22 45.2306 196.22 45.4067C196.22 45.9529 195.337 45.7496 194.177 45.4824C192.801 45.1655 191.035 44.7588 189.89 45.4067C189.407 45.6799 189.035 45.9843 188.66 46.2913C187.394 47.3266 186.091 48.392 180.396 48.392C176.354 48.392 175.157 47.8556 174.727 47.6634C174.623 47.6168 174.564 47.5904 174.521 47.5969C174.465 47.6054 174.435 47.6695 174.367 47.8167C174.308 47.9422 174.221 48.1283 174.066 48.392C173.011 50.1832 166.681 48.9891 162.462 47.795C160.275 47.1762 157.805 44.9544 155.493 42.8739C153.342 40.9392 151.327 39.1267 149.802 38.839C146.918 38.2948 146.662 38.7426 145.841 40.1824C145.761 40.3223 145.676 40.4715 145.582 40.6302C144.527 42.4214 136.088 45.4067 131.868 45.4067C129.84 45.4067 129.031 45.6824 127.8 46.1013C126.47 46.5543 124.648 47.1746 120.264 47.795C115.32 48.4945 113.634 47.7598 112.238 47.1512C111.25 46.7208 110.407 46.3535 108.659 46.6008C106.604 46.8917 106.301 47.4659 105.92 48.1853C105.52 48.9429 105.035 49.8616 102.33 50.7803C99.6923 51.6759 98.9011 51.6759 97.978 51.6759C97.0549 51.6759 96 51.6759 92.8352 52.5715C88.8032 53.7125 83.059 52.9153 76.6932 52.0319C73.0656 51.5285 69.236 50.997 65.4066 50.7803C56.967 50.3026 56.2637 54.1637 56.967 56.1539Z" fill="#202020"/>
</svg>
