<svg width="1440" height="482" viewBox="0 0 1440 482" fill="none" xmlns="http://www.w3.org/2000/svg">
<path d="M0 36.4507L56.967 56.1539C56.2637 54.1637 56.967 50.3026 65.4066 50.7803C69.2361 50.997 73.0656 51.5285 76.6932 52.0319C83.059 52.9153 88.8032 53.7125 92.8352 52.5715C96 51.6759 97.0549 51.6759 97.978 51.6759C98.9011 51.6759 99.6923 51.6759 102.33 50.7803C105.035 49.8616 105.52 48.9429 105.92 48.1853C106.301 47.4659 106.604 46.8917 108.659 46.6008C110.407 46.3535 111.25 46.7208 112.238 47.1512C113.634 47.7598 115.32 48.4945 120.264 47.795C124.648 47.1746 126.47 46.5543 127.8 46.1013C129.031 45.6824 129.84 45.4067 131.868 45.4067C136.088 45.4067 144.527 42.4214 145.582 40.6302C145.676 40.4715 145.761 40.3223 145.841 40.1824C146.662 38.7426 146.918 38.2948 149.802 38.839C151.327 39.1267 153.342 40.9392 155.493 42.8739C157.805 44.9544 160.275 47.1762 162.462 47.795C166.681 48.9891 173.011 50.1832 174.066 48.392C174.403 47.8191 174.417 47.6127 174.521 47.5969C174.743 47.5634 175.373 48.392 180.396 48.392C186.091 48.392 187.394 47.3266 188.66 46.2913C189.035 45.9843 189.407 45.6799 189.89 45.4067C191.035 44.7588 192.801 45.1655 194.177 45.4824C195.337 45.7496 196.22 45.9529 196.22 45.4067C196.22 45.2305 196.197 45.0544 196.175 44.884C196.046 43.8992 195.943 43.1065 200.44 43.6155C202.011 43.7934 202.834 43.9713 203.437 44.1018C204.859 44.4093 205.064 44.4538 210.989 43.6155C214.79 43.0777 216.879 42.0555 218.509 41.2579C220.498 40.2845 221.804 39.6457 224.703 40.6302C228.287 41.8472 231.871 43.3399 236.117 45.1082C238.12 45.9424 240.27 46.838 242.637 47.795C247.224 49.6492 252.218 51.0428 258.124 52.691C261.727 53.6964 265.669 54.7966 270.066 56.1539C281.67 59.7363 281.67 59.7363 282.725 60.9304C282.989 61.229 283.121 61.5648 283.253 61.9007C283.648 62.9082 284.044 63.9158 288 63.9158C290.416 63.9158 291.504 64.7926 292.684 65.7431C294.079 66.8676 295.602 68.0952 299.604 68.0952C303.717 68.0952 304.885 67.91 306.57 67.6428C307.911 67.4302 309.579 67.1656 313.319 66.9011C317.934 66.5746 318.448 66.6052 320.037 66.7C321.353 66.7785 323.407 66.9011 329.143 66.9011C341.802 66.9011 350.242 66.304 352.352 65.1099C354.462 63.9158 355.516 63.3187 358.681 65.1099C361.846 66.9011 366.066 69.2895 371.341 71.6776C373.385 72.6034 374.637 73.3497 375.588 73.9166C377.091 74.8122 377.842 75.26 379.78 75.26C381.787 75.26 383.369 74.7801 384.527 74.4287C385.196 74.2259 385.724 74.0659 386.11 74.0659C386.462 74.0659 387.048 74.3313 387.829 74.6851C389.392 75.3927 391.736 76.4542 394.549 76.4542C396.161 76.4542 397.157 76.6284 398.008 76.7772C399.385 77.018 400.381 77.1922 402.989 76.4542C406.667 75.4134 408.742 76.6404 411.31 78.1586C411.688 78.3823 412.077 78.6124 412.484 78.8424C415.648 80.6336 418.813 81.8278 425.143 82.4248C428.003 82.6946 428.924 82.7206 429.756 82.8883C430.766 83.0917 431.644 83.5038 435.692 84.8131C443.077 87.2014 456.791 88.9926 461.011 88.9926C462.623 88.9926 463.927 88.8183 465.041 88.6695C466.843 88.4288 468.147 88.2545 469.451 88.9926C473.463 88.9926 472.812 89.7125 472.335 90.2395C472.06 90.5438 471.843 90.7838 472.615 90.7838C473.283 90.7838 473.952 90.9035 474.653 91.0292C476.167 91.3005 477.837 91.5998 480 90.7838C482.532 89.8284 483.868 89.1916 484.22 88.9926C486.33 88.3955 491.182 87.5596 493.714 88.9926C495.732 90.1344 496.892 89.8205 498.288 89.4428C499.081 89.228 499.952 88.9926 501.099 88.9926C502.154 88.9926 503.092 89.1252 504.029 89.2579C505.905 89.5233 507.78 89.7886 510.593 88.9926C512.531 88.4442 512.912 88.1477 513.369 88.1029C513.909 88.0502 514.555 88.3468 517.978 88.9926C521.628 89.6811 524.226 89.7741 526.175 89.8439C527.607 89.8952 528.689 89.9339 529.582 90.1867C531.27 90.6643 532.396 92.774 532.747 93.7691C532.396 92.774 532.747 90.9032 536.967 91.3808C539.655 91.6851 539.877 91.3692 540.147 90.9861C540.407 90.6175 540.71 90.1867 543.297 90.1867C546.528 90.1867 548.571 91.0829 550.155 91.7773C551.156 92.2165 551.974 92.575 552.791 92.575C559.121 93.7691 560.176 93.7691 562.286 93.7691C563.021 93.7691 563.884 94.0589 565.008 94.4365C567.112 95.1431 570.133 96.1573 574.945 96.1573C582.33 96.1573 584.44 94.9632 585.494 94.3662C586.338 93.8885 588.659 94.9632 589.714 95.5603C590.418 94.7642 592.457 93.4109 594.989 94.3662C596.078 94.7771 596.418 95.2587 596.738 95.7137C597.35 96.5809 597.893 97.3515 603.429 97.3515C607.564 97.3515 608.913 97.925 609.959 98.3695C611.046 98.8319 611.805 99.1545 615.033 98.5456C618.458 97.8994 619.721 96.9036 620.827 96.0311C621.766 95.2913 622.591 94.6401 624.527 94.3662C627.151 93.9949 628.144 93.3927 629.28 92.7033C629.971 92.284 630.715 91.8324 631.912 91.3808C633.407 90.8169 633.96 90.6524 634.461 90.4473C635.022 90.218 635.516 89.9379 637.187 88.9926C640.352 87.2014 642.462 87.7984 643.516 88.9926C643.986 89.5244 644.456 88.8719 645.019 88.09C645.72 87.1164 646.566 85.942 647.736 86.6043C648.674 87.135 649.612 86.7222 650.549 86.3094C651.722 85.7935 652.894 85.2775 654.066 86.6043C655.743 88.5023 656.753 87.0063 657.627 85.7128C657.853 85.3788 658.069 85.0582 658.286 84.8131C659.13 83.8578 662.154 84.415 663.56 84.8131C663.56 85.0121 663.982 85.2907 665.67 84.8131C666.544 84.5658 666.694 84.3185 666.87 84.0287C667.118 83.619 667.418 83.1243 669.89 82.4248C670.552 82.2374 671.137 82.0794 671.663 81.937C674.493 81.1719 675.661 80.8559 678.33 78.8424C681.495 76.4542 684.659 74.663 686.769 75.26C687.685 75.5193 687.806 75.2156 687.995 74.7401C688.24 74.1206 688.602 73.2095 690.989 72.8718C692.693 72.6307 693.708 72.9735 694.592 73.2717C695.897 73.712 696.912 74.0548 699.429 72.2747C703.648 69.2894 705.758 68.6923 708.923 69.2894C709.811 69.4569 710.367 69.7185 710.87 69.9554C712.16 70.5626 713.105 71.0074 718.418 69.2894C721.191 68.3923 722.626 68.0849 723.671 67.8609C725.408 67.4886 726.07 67.3467 730.022 65.1099C732.521 63.6956 736.829 62.002 741.192 60.2865C747.882 57.6567 754.702 54.9753 755.341 53.1686C755.893 51.6065 756.445 51.8426 757.601 52.3372C758.655 52.7879 760.211 53.4532 762.725 53.1686C765.363 52.87 765.89 52.273 766.286 51.8252C766.681 51.3774 766.945 51.0788 769.055 51.3774C770.379 51.5648 771.288 51.6345 772.107 51.6974C773.898 51.8349 775.261 51.9395 779.604 53.1686C782.848 54.0865 784.153 53.75 785.647 53.3644C787.069 52.9976 788.663 52.5864 792.264 53.1686C797.472 54.0108 800.581 53.665 803.072 53.388C804.113 53.2723 805.045 53.1686 805.978 53.1686H811.253C811.956 52.7705 813.996 52.3327 816.527 53.7656C819.692 55.5566 819.692 55.5568 823.91 58.5408L823.912 58.5422C826.081 60.0767 827.135 61.7689 827.934 63.0513C828.689 64.2638 829.216 65.1099 830.242 65.1099C830.945 65.1099 831.531 65.2426 832.117 65.3753C833.289 65.6406 834.462 65.906 836.571 65.1099C837.498 64.7601 838.063 64.4104 838.531 64.1206C839.661 63.4211 840.226 63.0714 843.956 63.9158C847.216 64.6538 847.655 65.1637 848.262 65.8685C848.638 66.304 849.077 66.814 850.286 67.4982C853.451 69.2894 854.505 69.2894 857.67 69.2894C860 69.2894 860.615 70.5831 861.618 72.6946C861.978 73.4519 862.388 74.3143 862.945 75.26C864.735 78.2993 865.006 78.3303 870.845 78.999C871.889 79.1186 873.11 79.2584 874.549 79.4395C882.61 80.4533 884.588 81.0368 887.584 81.9206C888.116 82.0778 888.681 82.2445 889.319 82.4248C891.572 83.0624 891.72 83.0191 892.331 82.8403C892.865 82.6842 893.753 82.4248 896.703 82.4248C900.654 82.4248 901.317 83.3551 902.539 85.0705C903.276 86.1037 904.215 87.4216 906.198 88.9926C911.473 93.172 914.637 94.9632 917.802 93.172C919.102 92.4367 920.045 91.3994 920.925 90.432C922.189 89.0432 923.321 87.7984 925.187 87.7984C926.628 87.7984 926.757 88.2934 926.868 88.7201C927.001 89.2305 927.108 89.643 929.407 88.9926C930.855 88.5827 931.682 88.5245 932.314 88.48C933.524 88.395 934.02 88.3601 936.791 86.0072C939.035 84.1027 939.191 83.5482 939.321 83.0877C939.435 82.682 939.529 82.3493 941.011 81.2307C942.756 79.9136 943.218 79.8676 943.989 79.7909C944.616 79.7285 945.448 79.6458 947.341 78.8424C948.266 78.4497 949.039 78.1144 949.737 77.8114C952.226 76.732 953.772 76.0615 957.89 74.663C960.55 73.7596 962.405 72.097 963.997 70.6707C965.561 69.2688 966.871 68.0952 968.44 68.0952C969.908 68.0952 970.695 67.5808 971.539 67.0295C972.513 66.3928 973.563 65.707 975.824 65.707C980.044 65.707 984.264 63.9158 986.374 62.1246C986.551 61.9743 986.72 61.8239 986.889 61.6747C988.727 60.0454 990.424 58.5422 1000.09 58.5422C1006.27 58.5422 1009.2 57.7209 1012.47 56.8007C1014.78 56.1517 1017.26 55.4536 1021.19 54.9598C1027.81 54.1272 1032.89 52.7141 1037.15 51.53C1038.99 51.0158 1040.69 50.5448 1042.29 50.1832C1044.41 49.7018 1045.68 49.1234 1046.99 48.5262C1048.93 47.642 1050.96 46.7165 1056 46.0038C1059.73 45.4759 1062.84 45.298 1065.25 45.1607C1068.28 44.9875 1070.18 44.8788 1070.77 44.2126C1071.12 43.8145 1071.12 43.2838 1071.12 42.753C1071.12 41.6916 1071.12 40.6302 1073.93 40.6302C1076.35 40.6302 1078.07 41.41 1079.3 41.9671C1080.22 42.3848 1080.87 42.6773 1081.32 42.4214C1081.6 42.2605 1081.81 41.7097 1082.09 40.979C1082.83 38.9974 1084.08 35.6928 1088.7 35.2566C1092.27 34.9204 1093.82 34.7735 1094.88 34.283C1095.7 33.9023 1096.22 33.3148 1097.14 32.2712C1098.03 31.2618 1098.17 30.359 1098.27 29.6982C1098.41 28.7955 1098.48 28.3441 1100.31 28.6888C1101.89 28.9874 1101.89 28.9874 1102.29 28.7635C1102.68 28.5396 1103.47 28.0918 1106.64 27.4947C1111.7 26.5394 1110.86 28.6888 1109.8 29.883C1111.56 29.883 1114.02 28.9277 1109.8 25.1064C1109.45 23.9123 1110.22 21.8823 1116.13 23.3152C1122.35 24.8234 1123.33 24.2151 1126.01 22.5597C1126.51 22.249 1127.07 21.9014 1127.74 21.524L1134.07 17.9416C1135.36 17.2098 1135.42 16.5776 1135.47 16.0451C1135.54 15.2743 1135.6 14.7123 1139.34 14.3592C1141.67 14.1398 1143.14 14.0817 1144.28 14.0366C1146.24 13.9591 1147.22 13.9203 1149.89 13.1651C1151.39 12.7393 1152.36 12.1616 1153.18 11.6757C1154.65 10.7991 1155.61 10.2215 1158.33 11.3739C1160.13 12.1375 1160.39 12.7926 1160.6 13.2929C1160.87 13.9662 1161.03 14.3592 1164.66 14.3592C1170.99 14.3592 1173.1 14.3592 1176.26 15.5534C1177.8 16.1317 1178.83 15.8697 1179.98 15.5814C1181.19 15.2744 1182.53 14.9376 1184.7 15.5534C1186.32 16.0095 1187 16.4656 1187.59 16.8552C1188.54 17.4855 1189.23 17.9416 1193.14 17.9416C1194.98 17.9416 1196.11 18.0428 1197.38 18.1567C1200.48 18.4344 1204.42 18.7883 1221.63 17.9416C1230.78 17.491 1238.44 17.3805 1244.76 17.2892C1255.19 17.1386 1261.99 17.0404 1265.93 15.5534C1268.38 14.6307 1270.35 13.6189 1272.1 12.7246C1274.87 11.304 1277.06 10.1798 1279.65 10.1798C1281.87 10.1798 1284.67 11.3351 1287.75 12.6044C1290.52 13.7493 1293.53 14.9871 1296.53 15.5534C1301.59 16.5087 1302.86 15.9514 1302.86 15.5534H1308.13C1307.43 14.5583 1306.44 12.3292 1308.13 11.3739C1309.08 10.8372 1310.03 10.9036 1311.07 10.9767C1312.35 11.0662 1313.77 11.1659 1315.52 10.1798C1316.49 9.62748 1317.37 9.24548 1318.17 8.89375C1319.98 8.10475 1321.44 7.46808 1322.9 5.40325C1323.64 4.3547 1323.86 3.60078 1324.02 3.06388C1324.31 2.07215 1324.38 1.82085 1327.12 1.82085C1331.34 1.82085 1332.4 1.82085 1336.62 3.61205C1338.35 4.34792 1339.01 5.18456 1339.56 5.87358C1340.35 6.86171 1340.89 7.54622 1344 7.19445C1346.86 6.87109 1347.55 7.24823 1348.08 7.18774C1348.54 7.13653 1348.88 6.77178 1350.33 5.40325C1351.46 4.33447 1351.92 3.49527 1352.28 2.83085C1352.93 1.63942 1353.27 1.01003 1356.66 0.626715C1357.37 0.546549 1358.02 0.455619 1358.64 0.368377C1362.67 -0.194143 1365.6 -0.603319 1375.65 3.01498C1384.93 6.35855 1422.42 15.9514 1440 20.3299V566.549L1383.03 546.846C1383.74 548.836 1383.03 552.697 1374.59 552.22C1370.76 552.003 1366.93 551.471 1363.31 550.968C1356.94 550.085 1351.2 549.287 1347.16 550.428C1344 551.324 1342.95 551.324 1342.02 551.324C1341.1 551.324 1340.31 551.324 1337.67 552.22C1334.96 553.138 1334.48 554.057 1334.08 554.815C1333.7 555.534 1333.4 556.108 1331.34 556.399C1329.59 556.646 1328.75 556.279 1327.76 555.849C1326.37 555.24 1324.68 554.505 1319.74 555.205C1315.35 555.825 1313.53 556.446 1312.2 556.899C1310.97 557.318 1310.16 557.593 1308.13 557.593C1303.91 557.593 1295.47 560.579 1294.42 562.37C1294.32 562.528 1294.24 562.678 1294.16 562.818C1293.34 564.257 1293.08 564.705 1290.2 564.161C1288.67 563.873 1286.66 562.061 1284.51 560.126C1282.19 558.046 1279.72 555.824 1277.54 555.205C1273.32 554.011 1266.99 552.817 1265.93 554.608C1265.6 555.181 1265.58 555.387 1265.48 555.403C1265.26 555.437 1264.63 554.608 1259.6 554.608C1253.91 554.608 1252.61 555.673 1251.34 556.709C1250.96 557.016 1250.59 557.32 1250.11 557.593C1248.97 558.241 1247.2 557.834 1245.82 557.518C1244.66 557.25 1243.78 557.047 1243.78 557.593C1243.78 557.769 1243.8 557.946 1243.83 558.116C1243.95 559.101 1244.06 559.893 1239.56 559.385C1237.99 559.207 1237.17 559.029 1236.56 558.898C1235.14 558.591 1234.94 558.546 1229.01 559.385C1225.21 559.922 1223.12 560.944 1221.49 561.742C1219.5 562.715 1218.2 563.354 1215.3 562.37C1211.71 561.153 1208.13 559.66 1203.88 557.892C1201.88 557.058 1199.73 556.162 1197.36 555.205C1192.78 553.351 1187.78 551.957 1181.88 550.309C1178.27 549.304 1174.33 548.203 1169.93 546.846L1169.93 546.846C1158.33 543.264 1158.33 543.264 1157.27 542.07C1157.01 541.771 1156.88 541.435 1156.75 541.099C1156.35 540.092 1155.96 539.084 1152 539.084C1149.58 539.084 1148.5 538.207 1147.32 537.257C1145.92 536.132 1144.4 534.905 1140.4 534.905C1136.28 534.905 1135.12 535.09 1133.43 535.357C1132.09 535.57 1130.42 535.834 1126.68 536.099C1122.07 536.425 1121.55 536.395 1119.96 536.3C1118.65 536.221 1116.59 536.099 1110.86 536.099C1098.2 536.099 1089.76 536.696 1087.65 537.89C1085.54 539.084 1084.48 539.681 1081.32 537.89C1078.15 536.099 1073.93 533.711 1068.66 531.322C1066.61 530.397 1065.36 529.65 1064.41 529.083C1062.91 528.188 1062.16 527.74 1060.22 527.74C1058.21 527.74 1056.63 528.22 1055.47 528.571C1054.8 528.774 1054.28 528.934 1053.89 528.934C1053.54 528.934 1052.95 528.669 1052.17 528.315C1050.61 527.607 1048.26 526.546 1045.45 526.546C1043.84 526.546 1042.84 526.372 1041.99 526.223C1040.61 525.982 1039.62 525.808 1037.01 526.546C1033.33 527.587 1031.26 526.36 1028.69 524.841C1028.31 524.618 1027.92 524.388 1027.52 524.158C1024.35 522.366 1021.19 521.172 1014.86 520.575C1012 520.305 1011.08 520.279 1010.24 520.112C1009.23 519.908 1008.36 519.496 1004.31 518.187C996.923 515.799 983.209 514.007 978.989 514.007C977.377 514.007 976.073 514.182 974.959 514.33C973.157 514.571 971.853 514.745 970.549 514.007C966.537 514.007 967.188 513.288 967.665 512.76C967.94 512.456 968.157 512.216 967.385 512.216C966.717 512.216 966.049 512.096 965.347 511.971C963.833 511.699 962.163 511.4 960 512.216C957.468 513.172 956.132 513.808 955.78 514.007C953.67 514.604 948.818 515.44 946.286 514.007C944.268 512.866 943.108 513.18 941.712 513.557C940.919 513.772 940.048 514.007 938.901 514.007C937.846 514.007 936.908 513.875 935.971 513.742C934.095 513.477 932.22 513.211 929.407 514.007C927.469 514.556 927.088 514.852 926.631 514.897C926.091 514.95 925.445 514.653 922.022 514.007C918.372 513.319 915.774 513.226 913.825 513.156C912.393 513.105 911.311 513.066 910.418 512.813C908.73 512.336 907.604 510.226 907.253 509.231C907.604 510.226 907.253 512.097 903.033 511.619C900.345 511.315 900.123 511.631 899.853 512.014C899.593 512.383 899.29 512.813 896.703 512.813C893.472 512.813 891.429 511.917 889.845 511.223C888.844 510.783 888.026 510.425 887.209 510.425C880.879 509.231 879.824 509.231 877.714 509.231C876.979 509.231 876.116 508.941 874.992 508.563C872.888 507.857 869.867 506.843 865.055 506.843C857.67 506.843 855.56 508.037 854.506 508.634C853.662 509.111 851.341 508.037 850.286 507.44C849.582 508.236 847.543 509.589 845.011 508.634C843.922 508.223 843.582 507.741 843.262 507.286C842.65 506.419 842.107 505.648 836.571 505.648C832.436 505.648 831.087 505.075 830.041 504.631C828.954 504.168 828.195 503.845 824.967 504.454C821.542 505.101 820.279 506.096 819.173 506.969C818.234 507.709 817.409 508.36 815.473 508.634C812.849 509.005 811.856 509.607 810.72 510.297C810.029 510.716 809.285 511.168 808.088 511.619C806.593 512.183 806.04 512.348 805.539 512.553C804.978 512.782 804.483 513.062 802.813 514.007C799.648 515.799 797.538 515.202 796.484 514.007C796.014 513.476 795.544 514.128 794.981 514.91C794.28 515.884 793.434 517.058 792.264 516.396C791.326 515.865 790.388 516.278 789.451 516.69C788.278 517.206 787.106 517.722 785.934 516.396C784.257 514.498 783.247 515.994 782.373 517.287C782.147 517.621 781.931 517.942 781.714 518.187C780.87 519.142 777.846 518.585 776.44 518.187C776.44 517.988 776.018 517.709 774.33 518.187C773.456 518.434 773.306 518.682 773.13 518.971C772.882 519.381 772.582 519.876 770.11 520.575C769.448 520.763 768.863 520.921 768.337 521.063C765.507 521.828 764.339 522.144 761.67 524.158C758.505 526.546 755.341 528.337 753.231 527.74C752.315 527.481 752.194 527.784 752.005 528.26C751.76 528.879 751.398 529.79 749.011 530.128C747.307 530.369 746.292 530.026 745.408 529.728C744.103 529.288 743.088 528.945 740.571 530.725C736.352 533.711 734.242 534.308 731.077 533.711C730.189 533.543 729.633 533.281 729.13 533.045C727.84 532.437 726.895 531.993 721.582 533.711C718.809 534.608 717.374 534.915 716.329 535.139C714.592 535.511 713.93 535.653 709.978 537.89C707.479 539.304 703.171 540.998 698.808 542.714C692.118 545.343 685.298 548.025 684.659 549.831C684.107 551.393 683.555 551.157 682.399 550.663C681.345 550.212 679.789 549.547 677.275 549.831C674.637 550.13 674.11 550.727 673.714 551.175C673.319 551.623 673.055 551.921 670.945 551.623C669.621 551.435 668.712 551.365 667.893 551.303C666.102 551.165 664.739 551.06 660.396 549.831C657.152 548.914 655.847 549.25 654.353 549.636C652.931 550.002 651.337 550.414 647.736 549.831C642.528 548.989 639.419 549.335 636.928 549.612C635.887 549.728 634.955 549.831 634.022 549.831H628.747C628.044 550.229 626.004 550.667 623.473 549.234C620.308 547.443 620.308 547.443 616.09 544.459L616.089 544.459L616.088 544.458C613.919 542.923 612.865 541.231 612.066 539.949C611.311 538.736 610.784 537.89 609.758 537.89C609.055 537.89 608.469 537.757 607.883 537.625C606.711 537.359 605.538 537.094 603.429 537.89C602.502 538.24 601.937 538.59 601.469 538.879C600.339 539.579 599.774 539.929 596.044 539.084C592.784 538.346 592.345 537.836 591.738 537.131C591.362 536.696 590.923 536.186 589.714 535.502C586.549 533.711 585.495 533.711 582.33 533.711C580 533.711 579.385 532.417 578.382 530.305C578.022 529.548 577.612 528.686 577.055 527.74C575.265 524.701 574.994 524.67 569.155 524.001C568.111 523.881 566.89 523.742 565.451 523.56C557.39 522.547 555.412 521.963 552.416 521.079C551.884 520.922 551.319 520.755 550.681 520.575C548.428 519.938 548.28 519.981 547.669 520.16C547.135 520.316 546.247 520.575 543.297 520.575C539.346 520.575 538.683 519.645 537.461 517.929C536.724 516.896 535.785 515.578 533.802 514.007C528.527 509.828 525.363 508.037 522.198 509.828C520.898 510.563 519.955 511.601 519.075 512.568C517.811 513.957 516.679 515.202 514.813 515.202C513.372 515.202 513.243 514.707 513.132 514.28C512.999 513.769 512.892 513.357 510.593 514.007C509.145 514.417 508.318 514.475 507.686 514.52C506.476 514.605 505.98 514.64 503.209 516.993C500.965 518.897 500.809 519.452 500.679 519.912C500.565 520.318 500.471 520.651 498.989 521.769C497.244 523.086 496.782 523.132 496.011 523.209C495.384 523.271 494.552 523.354 492.659 524.158C491.734 524.55 490.961 524.886 490.262 525.189C487.774 526.268 486.228 526.939 482.11 528.337C479.45 529.24 477.595 530.903 476.003 532.329C474.439 533.731 473.129 534.905 471.56 534.905C470.092 534.905 469.305 535.419 468.461 535.97C467.487 536.607 466.437 537.293 464.176 537.293C459.956 537.293 455.736 539.084 453.626 540.875C453.449 541.026 453.28 541.176 453.111 541.325C451.273 542.955 449.576 544.458 439.912 544.458C433.726 544.458 430.804 545.279 427.531 546.199C425.223 546.848 422.74 547.546 418.813 548.04C412.193 548.873 407.112 550.286 402.854 551.47C401.005 551.984 399.311 552.455 397.714 552.817C395.588 553.298 394.319 553.877 393.008 554.474C391.068 555.358 389.037 556.283 384 556.996C380.269 557.524 377.157 557.702 374.754 557.839C371.721 558.013 369.819 558.121 369.231 558.787C368.879 559.185 368.879 559.716 368.879 560.247C368.879 561.308 368.879 562.37 366.066 562.37C363.655 562.37 361.932 561.59 360.702 561.033C359.779 560.615 359.134 560.323 358.681 560.579C358.397 560.739 358.19 561.29 357.914 562.021C357.167 564.003 355.921 567.307 351.297 567.743C347.733 568.08 346.176 568.227 345.118 568.717C344.298 569.098 343.779 569.685 342.857 570.729C341.965 571.738 341.827 572.641 341.726 573.302C341.589 574.204 341.52 574.656 339.692 574.311C338.11 574.013 338.11 574.013 337.714 574.237C337.319 574.46 336.527 574.908 333.363 575.505C328.299 576.461 329.143 574.311 330.198 573.117C328.44 573.117 325.978 574.072 330.198 577.894C330.549 579.088 329.776 581.118 323.868 579.685C317.65 578.177 316.668 578.785 313.994 580.44C313.492 580.751 312.931 581.099 312.264 581.476L305.934 585.058C304.641 585.79 304.581 586.422 304.53 586.955C304.456 587.726 304.403 588.288 300.659 588.641C298.333 588.86 296.862 588.918 295.721 588.963C293.76 589.041 292.779 589.08 290.11 589.835C288.605 590.261 287.637 590.838 286.823 591.324C285.354 592.201 284.385 592.779 281.67 591.626C279.872 590.863 279.606 590.207 279.404 589.707C279.131 589.034 278.972 588.641 275.341 588.641C269.011 588.641 266.901 588.641 263.736 587.447C262.203 586.868 261.166 587.13 260.023 587.419C258.807 587.726 257.473 588.062 255.297 587.447C253.685 586.99 252.997 586.534 252.409 586.145C251.457 585.514 250.769 585.058 246.857 585.058C245.015 585.058 243.888 584.957 242.618 584.843C239.522 584.566 235.577 584.212 218.374 585.058C209.217 585.509 201.563 585.62 195.241 585.711C184.811 585.861 178.007 585.96 174.066 587.447C171.621 588.369 169.648 589.381 167.904 590.275C165.133 591.696 162.941 592.82 160.352 592.82C158.133 592.82 155.331 591.665 152.253 590.396C149.476 589.251 146.474 588.013 143.473 587.447C138.409 586.491 137.143 587.049 137.143 587.447H131.868C132.571 588.442 133.556 590.671 131.868 591.626C130.92 592.163 129.971 592.096 128.927 592.023C127.648 591.934 126.226 591.834 124.484 592.82C123.508 593.372 122.632 593.754 121.826 594.106C120.018 594.895 118.558 595.532 117.099 597.597C116.358 598.645 116.137 599.399 115.98 599.936C115.69 600.928 115.617 601.179 112.879 601.179C108.659 601.179 107.604 601.179 103.385 599.388C101.651 598.652 100.986 597.815 100.438 597.126C99.652 596.138 99.1077 595.454 96 595.806C93.1433 596.129 92.4526 595.752 91.9169 595.812C91.4635 595.863 91.1212 596.228 89.6704 597.597C88.5373 598.665 88.0803 599.505 87.7185 600.169C87.0697 601.361 86.727 601.99 83.3407 602.373C82.6325 602.453 81.9813 602.544 81.3565 602.632C77.3282 603.194 74.398 603.603 64.3517 599.985C55.0681 596.641 17.5824 587.049 0 582.67V36.4507Z" fill="#202020"/>
</svg>
